PathFileType	4	(X/Y/Z)	C:/Users/beibeiliu/ov580/test_trc/User3\sequence.20_training_dense_right.trc
DataRate	CameraRate	NumFrames	NumMarkers	Units	OrigDataRate	OrigDataStartFrame	OrigNumFrames
120	120	10	19	mm	120	37	72
Frame#	Time	ThumbCMC			ThumbMCP			ThumbIP			ThumbTip			IndexMCP			IndexPIP			IndexTip			MiddleMCP			MiddlePIP			MiddleTip			RingMCP			RingPIP			RingTip			PinkyMCP			PinkyPIP			PinkyTip			BackHand1			BackHand2			BackHand3	
		X0	Y0	Z0	X1	Y1	Z1	X2	Y2	Z2	X3	Y3	Z3	X4	Y4	Z4	X5	Y5	Z5	X6	Y6	Z6	X7	Y7	Z7	X8	Y8	Z8	X9	Y9	Z9	X10	Y10	Z10	X11	Y11	Z11	X12	Y12	Z12	X13	Y13	Z13	X14	Y14	Z14	X15	Y15	Z15	X16	Y16	Z16	X17	Y17	Z17	X18	Y18	Z18	
36	0.3	79.4868	-41.8929	17.1409	71.1799	-71.6821	1.94524	92.5127	-95.0071	-16.7425	119.036	-95.439	-11.9664	77.5331	-70.3096	-54.1057	63.8885	-84.2405	-68.8998	58.9555	-99.546	-85.6594	99.5845	-74.8825	-61.6296	98.0649	-91.4312	-78.9666	90.5776	-110.424	-105.258	125.328	-76.0086	-49.896	125.465	-91.9815	-71.9944	126.558	-108.054	-92.4076	147.3	-76.7804	-30.1625	155.609	-92.1985	-49.4933	159.154	-101.288	-62.307	128.771	-38.9233	-13.9829	133.619	-21.2826	4.88039	101.834	-22.7021	-3.6419	
37	0.308333	83.4981	-26.6661	25.6048	60.6513	-55.4699	13.2164	71.9012	-88.7728	0.387371	97.9737	-97.9004	5.44149	63.8931	-68.3163	-38.437	48.6001	-82.0662	-51.5566	30.3341	-93.5344	-65.983	83.4793	-84.8394	-45.6159	73.3835	-103.815	-58.6812	58.7587	-123.871	-77.8884	105.235	-91.3069	-34.5817	95.5439	-110.628	-51.2945	87.8367	-126.743	-65.5234	125.434	-99.0589	-16.0759	122.694	-117.71	-28.2925	119.639	-133.064	-41.5624	128.139	-50.2683	-8.88237	141.72	-34.6955	5.82609	105.517	-27.2391	-6.0271	
38	0.316667	93.4647	-5.68911	22.6841	60.4916	-24.0779	13.8706	54.454	-59.2122	8.51149	68.7126	-78.8311	17.2959	51.5903	-47.2433	-35.2142	31.2942	-51.5132	-46.176	11.662	-60.4793	-57.9254	64.5568	-72.5531	-33.453	43.4673	-80.9071	-45.078	19.8933	-94.5419	-62.9248	74.8945	-84.9547	-23.2015	63.8716	-98.7772	-32.3973	45.0968	-112.443	-46.0839	92.0863	-95.1298	1.1327	82.4379	-111.65	-3.28664	70.7995	-126.747	-13.8014	117.912	-55.6004	-0.834492	137.45	-43.4571	10.2971	113.692	-24.4553	-6.2653	
39	0.325	107.487	10.7497	15.6423	70.3947	1.69314	5.5771	53.2723	-24.8426	7.70388	52.8169	-45.2068	19.6908	58.9632	-16.006	-36.4059	37.7432	-13.0531	-50.7042	16.3235	-13.3111	-65.0297	51.8019	-43.2612	-35.5978	28.5401	-48.1839	-46.5699	2.94615	-52.8886	-61.7935	54.9466	-63.6352	-17.7431	37.5637	-68.7768	-29.0676	14.5964	-76.5129	-41.1478	62.9485	-71.7651	6.73957	45.952	-85.3787	5.34999	28.359	-97.6086	-0.809897	105.261	-54.1577	4.20239	130.492	-50.028	19.6438	118.055	-21.9548	-7.03743	
40	0.333333	121.954	12.7704	7.48498	88.5333	21.0704	-3.32576	59.6602	5.25384	-2.14702	52.0823	-16.4746	10.8915	74.1855	1.35261	-48.5956	55.8552	8.182	-63.8711	37.6317	14.551	-83.8836	55.4967	-23.2884	-40.5856	37.455	-16.4947	-55.5196	12.5739	-14.4513	-76.7819	51.0164	-37.159	-19.5705	31.7595	-37.0384	-35.5852	10.2197	-40.2758	-48.0097	48.1687	-46.399	7.04648	27.9763	-50.5067	3.26471	9.49213	-57.382	-2.47044	96.2525	-42.7855	2.34565	118.913	-49.7206	20.4275	120.232	-23.6944	-4.52985	
41	0.341667	133.679	6.44552	5.28682	107.851	25.0517	-14.4397	75.5945	12.6595	-16.4669	58.0278	-3.57099	-2.32225	97.5756	-0.483437	-61.0325	85.5995	7.205	-81.8414	77.5634	13.2162	-102.47	70.3281	-16.8114	-56.8322	54.1353	-12.308	-72.9156	35.9665	-8.80957	-98.2236	56.3692	-26.8462	-35.0998	44.8579	-25.1695	-50.2769	21.4784	-25.9696	-69.5043	50.1831	-29.9419	-4.2111	28.9279	-28.5692	-16.4003	11.8183	-33.4917	-19.9493	96.3297	-42.0121	0.636288	109.81	-46.6246	20.8523	128.134	-27.467	-6.2131	
42	0.35	145.111	-7.77017	2.92564	128.017	9.32494	-23.4491	94.6421	2.45312	-34.3066	72.53	-10.8167	-21.0092	122.432	-26.9962	-69.1178	120.464	-23.7757	-90.2325	117.874	-21.611	-115.025	94.9405	-40.5057	-65.6111	87.1549	-39.1953	-85.1322	77.5991	-39.7861	-116.053	81.1418	-40.5632	-47.9737	68.3554	-44.1243	-67.7094	57.4619	-46.0566	-88.1613	62.4247	-38.0588	-19.8106	46.8965	-38.7391	-31.3131	28.8224	-43.2052	-45.2002	105.176	-51.4107	-1.81171	111.765	-54.5147	22.0158	137.106	-41.7568	-5.60545	
43	0.358333	158.409	-13.5833	4.55282	142.932	-5.54034	-25.9553	115.596	-14.4522	-40.8303	94.5124	-26.2767	-31.5453	149.68	-48.5481	-60.0098	156.936	-50.8014	-90.5496	157.565	-52.4592	-111.732	126.819	-62.2879	-59.9914	125.578	-67.7376	-88.1755	121.026	-73.516	-116.21	107.706	-64.9434	-47.8654	100.544	-72.9085	-73.2287	89.8772	-80.4789	-92.6754	82.6984	-60.8815	-28.0821	71.7725	-63.8395	-43.9227	55.8821	-71.4324	-57.491	122.646	-63.2662	0.514947	125.66	-63.5973	25.4537	150.701	-51.7798	5.61626	
44	0.366667	160.9	-12.8589	6.66653	150.953	-8.21399	-24.1434	130.779	-26.1802	-41.9544	112.789	-45.5463	-34.2049	179.962	-49.2496	-56.9514	186.867	-49.9715	-78.9	189.137	-57.4722	-104.622	162.635	-70.7538	-56.2174	163.523	-80.7643	-81.5178	166.652	-87.9001	-111.168	142.595	-80.3637	-46.7634	144.047	-91.0871	-68.9277	139.392	-101.692	-90.025	118.074	-78.8937	-29.4016	106.484	-91.3419	-45.7131	100.5	-100.813	-63.0114	148.862	-71.353	1.94356	146.73	-64.1803	33.8112	172.043	-45.662	12.0907	
45	0.375	158.584	-1.65052	9.402	150.166	-3.87387	-25.4089	141.313	-28.8453	-45.1801	132.995	-56.6364	-35.0797	193.201	-29.3137	-48.0838	203.518	-25.1505	-74.4875	211.443	-29.088	-101.078	192.016	-53.3104	-49.8905	199.313	-59.2483	-73.7252	205.38	-69.7502	-105.299	176.783	-68.3801	-38.5502	185.345	-80.8486	-63.208	189.849	-92.1622	-85.333	154.408	-85.8858	-26.0552	152.698	-94.0962	-41.643	149.931	-113.558	-58.5917	174.586	-56.6333	7.63373	169.571	-56.9613	38.9626	185.271	-24.8456	12.8798	
